# xmcd
# 
# Track frame offsets:
#     150
#     22696
#     40377
#     59808
#     77263
#     95928
#     111568
#     127508
#     145272
#     164371
# 
# Disc length: 2491
# 
# Revision: 0
# Processed by: cddbd v1.5.2PL0 Copyright (c) Steve Scherf et al.
# Submitted via: fre:ac v1.0.27
# 
DISCID=8109b90a
DTITLE=Florent Pagny - Habana
DYEAR=2016
DGENRE=Chanson
TTITLE0=Dónde va la vida
TTITLE1=Viviré
TTITLE2=Volver a cantar
TTITLE3=Encore
TTITLE4=Habana
TTITLE5=Agua salada
TTITLE6=Voz de bolero
TTITLE7=Dónde están (a dúo con raúl paz)
TTITLE8=Falta el ruido
TTITLE9=Mais où s'en va la vie
EXTD=
EXTT0=
EXTT1=
EXTT2=
EXTT3=
EXTT4=
EXTT5=
EXTT6=
EXTT7=
EXTT8=
EXTT9=
PLAYORDER=
